<svg xmlns="http://www.w3.org/2000/svg" xmlns:xlink="http://www.w3.org/1999/xlink" viewBox="0 0 278 187"><defs><style>.cls-1{fill:none;}.cls-2{clip-path:url(#clip-path);}.cls-3,.cls-5{fill:#86b0b7;}.cls-3,.cls-4{fill-rule:evenodd;}.cls-4,.cls-6{fill:#feff4e;}</style><clipPath id="clip-path"><rect class="cls-1" x="-396" y="-37" width="360" height="640"/></clipPath></defs><title>GearShare logo</title><g id="Layer_4" data-name="Layer 4"><g class="cls-2"><image width="6000" height="4000" transform="translate(-795 -72) scale(0.17)" xlink:href="../../../../../../images/gabriel-barletta-87533.jpg"/></g></g><g id="Layer_11" data-name="Layer 11"><path class="cls-3" d="M131.59,168.32C100.43,178.44,78,165.84,71.69,139l0-.2-12.17-.65-9.87,7.81,0,.12c5.63,32.92,31.33,48.89,67.74,37.07,28.91-9.38,58.08-34.18,79.64-64.89C178.43,142,154.91,160.75,131.59,168.32Z"/><path class="cls-4" d="M211.7,43.11l-.09-.3c-6.69-23.32-27.14-34-55.21-24.87-24.17,7.85-48.56,28.59-66.58,54.25C105.33,52.33,125,36.63,144.48,30.3c23.52-7.64,41.09.22,48.17,18.35l.22.58,11.52,2.84Z"/><path class="cls-3" d="M147.23,4.88c-28.19,9.15-56.62,33-78,62.63l12.46,8.2c19.59-30.09,47.51-54.79,75.16-63.77C180.16,4.36,198.57,9.52,209,23.85,198.31,3.63,176.15-4.5,147.23,4.88Z"/><path class="cls-4" d="M125.82,155.85c-19.5,6.33-34.9,2-43.64-10,9,16.9,27.49,23.71,51.66,15.86,23-7.46,46.19-26.6,63.9-50.56l-10.47-6.54C171,128.83,148.28,148.55,125.82,155.85Z"/><path class="cls-5" d="M33.7,111.86l2.85,23.26-7.72,2.07-1.63-4.51c-1.74,3.18-4.75,7.07-10,8.49C9.5,143.21,3.72,139,1.67,123.22c-2.15-16.81,2.85-22,15.3-25.35a47.19,47.19,0,0,1,12.93-1.77l.8,7.94c-4,1-7.59,1.85-11.7,3-6,1.6-7.27,4.42-6.13,14.08,1.15,8.81,2.49,10.86,6.6,9.76,3.1-.83,4.31-2.6,5.58-4.39l-1.43-11.87Z"/><path class="cls-5" d="M68.3,124.92c-3.32,2.7-8.07,4.58-12.24,5.69-11.94,3.2-16.61-1.16-18.17-11.25-1.83-12,2.73-16.18,12.81-18.89,11-3,14.95-.08,15.77,6.58.62,5.45-2.53,7.92-9.75,10.46l-7.45,2.6c.91,3,2.53,3.13,5.68,2.28,2.48-.66,7.7-2.36,11-3.66ZM53,112.83c2.47-.9,3.72-1.66,3.3-4.14-.33-1.9-1.15-2-4-1.23-3.42,1-4.28,2.29-4,7.1Z"/><path class="cls-5" d="M92.21,120.2,90.8,114.9a14.35,14.35,0,0,1-9.55,9c-7.55,2.45-10.89-2.57-12.1-13.18C67.64,97,73.24,94.44,82.53,91.95A69.4,69.4,0,0,1,96.74,90l3.42,28.06ZM83.89,99.07c-3.66,1-5.15,2.17-4.38,8.66.82,6.66,1.25,7.81,3.58,7.07,2.11-.69,4-3.36,5.33-6.68l-1.2-9.88Z"/><path class="cls-5" d="M123,91.2l-2.37.63c-2.14.57-4.28,1.81-7.75,4.19l2.3,18-10.31,2.76-3.56-29,8-2.14,1.36,4.4c3.1-4.64,6.59-7.38,10.09-8.32l1.91-.51Z"/><path class="cls-6" d="M136,90.29c-7-1.2-9.34-4.68-10.07-9.86-1.24-8.9,3.16-12.32,13.07-15a47,47,0,0,1,13.83-1.78l.88,7.13c-3.39.85-8.44,2.08-12.94,3.29-3.27.88-4.5,1.45-4.26,3.92.16,1.71.83,2.19,3.65,2.58l7.49,1.13c7,1.07,9.23,4,10.1,10,1.3,9.13-2,12.5-12.78,15.38a66.16,66.16,0,0,1-14.83,2.1l-1-7.71c6.86-1.66,11.34-2.74,12.92-3.16,4.17-1.12,5.33-2,5.13-4.27-.17-1.77-.93-2.11-3.12-2.42Z"/><path class="cls-6" d="M168.81,67.49a45.7,45.7,0,0,1,.23,7.18c3-4.68,6.41-7.39,9.79-8.3,5.41-1.45,8.94.68,9.58,6L191,93.94l-10.19,2.73-2.27-18.59c-.26-1.86-.65-2.18-2-1.82-2.08.56-3.76,2-6.16,5.15l2.2,17.46-10.25,2.75-5-40.91L167.58,58Z"/><path class="cls-6" d="M215.61,87.36l-1.42-5.29a14.35,14.35,0,0,1-9.55,9c-7.55,2.45-10.89-2.57-12.1-13.18-1.5-13.72,4.1-16.25,13.39-18.74a69.4,69.4,0,0,1,14.21-1.94l3.42,28.06Zm-8.32-21.13c-3.66,1-5.15,2.17-4.38,8.66.82,6.66,1.25,7.81,3.58,7.07,2.11-.69,4-3.36,5.33-6.68l-1.2-9.88Z"/><path class="cls-6" d="M246.35,58.36,244,59c-2.14.57-4.28,1.81-7.75,4.19l2.3,18L228.22,84l-3.56-29,8-2.14,1.36,4.4c3.1-4.64,6.59-7.38,10.09-8.32l1.91-.51Z"/><path class="cls-6" d="M278,69c-3.32,2.7-8.07,4.58-12.24,5.69-11.94,3.2-16.61-1.16-18.17-11.25-1.83-12,2.73-16.18,12.81-18.89,11-3,14.95-.08,15.77,6.58.62,5.45-2.53,7.92-9.75,10.46L259,64.15c.91,3,2.53,3.13,5.68,2.28,2.48-.66,7.7-2.36,11-3.66ZM262.75,56.86c2.47-.9,3.72-1.66,3.3-4.14-.33-1.9-1.15-2-4-1.23-3.42,1-4.28,2.29-4,7.1Z"/></g></svg>